<?xml version="1.0" encoding="iso-8859-1"?>
<!-- Generator: Adobe Illustrator 19.0.0, SVG Export Plug-In . SVG Version: 6.00 Build 0)  -->
<svg version="1.1" id="Layer_1" xmlns="http://www.w3.org/2000/svg" xmlns:xlink="http://www.w3.org/1999/xlink" x="0px" y="0px"
	 viewBox="0 0 501.976 501.976" style="enable-background:new 0 0 501.976 501.976;" xml:space="preserve">
<g>
	<ellipse style="fill:#5CC9C1;" cx="167.375" cy="167.65" rx="157.375" ry="156.744"/>
	<g>
		<g>
			<path style="fill:#FFF9E6;" d="M486.099,456.812L291.944,263.436c-8.153,10.502-17.612,19.945-28.14,28.087l194.584,193.803
				c3.848,3.832,8.852,5.743,13.854,5.743c5.11,0,10.217-1.995,14.084-5.974C493.979,477.221,493.877,464.559,486.099,456.812z"/>
			<g>
				<path d="M167.375,272.394c-15.902,0-31.176-3.439-45.397-10.224c-4.986-2.38-10.954-0.266-13.331,4.72
					c-2.378,4.984-0.265,10.953,4.72,13.331c16.932,8.077,35.103,12.173,54.009,12.173c5.523,0,10-4.478,10-10
					S172.898,272.394,167.375,272.394z"/>
				<path d="M167.375,42.907c-69.039,0-125.206,55.96-125.206,124.744c0,26.046,7.977,51,23.069,72.167
					c1.951,2.736,5.027,4.195,8.15,4.195c2.009,0,4.037-0.604,5.797-1.858c4.497-3.207,5.543-9.451,2.336-13.948
					C68.86,210.45,62.167,189.51,62.167,167.651c0-57.756,47.195-104.744,105.206-104.744c5.523,0,10-4.478,10-10
					S172.898,42.907,167.375,42.907z"/>
				<path d="M493.156,449.727L305.043,262.37c18.72-26.92,29.707-59.563,29.707-94.719c0-91.943-75.084-166.744-167.375-166.744
					S0,75.708,0,167.651c0,91.942,75.084,166.743,167.375,166.743c35.421,0,68.3-11.028,95.38-29.804l188.577,187.821
					c5.606,5.583,13.032,8.658,20.911,8.658c8.063,0,15.612-3.197,21.255-9.004C504.934,480.297,504.781,461.304,493.156,449.727z
					 M20,167.651C20,86.736,86.112,20.907,167.375,20.907S314.75,86.736,314.75,167.651c0,80.914-66.112,146.743-147.375,146.743
					C86.112,314.394,20,248.565,20,167.651z M479.156,478.126c-1.845,1.898-4.3,2.943-6.913,2.943c-2.552,0-4.966-1.005-6.798-2.828
					L278.652,292.197c4.929-4.375,9.599-9.038,13.981-13.96l186.409,185.66C482.948,467.788,482.999,474.171,479.156,478.126z"/>
			</g>
		</g>
	</g>
</g>
<g>
</g>
<g>
</g>
<g>
</g>
<g>
</g>
<g>
</g>
<g>
</g>
<g>
</g>
<g>
</g>
<g>
</g>
<g>
</g>
<g>
</g>
<g>
</g>
<g>
</g>
<g>
</g>
<g>
</g>
</svg>
